ply
format ascii 1.0
comment PCL generated
element vertex 397
property float x
property float y
property float z
property float nx
property float ny
property float nz
property float curvature
element face 685
property list uchar int vertex_indices
end_header
0.0054216 0.11349 0.040749 -0.079367 -0.54094 -0.83731 0.0059539 
-0.0017447 0.11425 0.041273 0.0025637 -0.52901 -0.84861 0.0075407 
-0.010661 0.11338 0.040916 0.11917 -0.50892 -0.85253 0.0079151 
0.026422 0.11499 0.032623 -0.49346 -0.57934 -0.64874 0.016187 
0.024545 0.12284 0.024255 -0.47887 -0.69959 -0.53033 0.017244 
0.034137 0.11316 0.02507 -0.68585 -0.52596 -0.50296 0.015227 
0.02886 0.11773 0.027037 -0.57939 -0.61562 -0.53415 0.016451 
0.02675 0.12234 0.017605 -0.54564 -0.7046 -0.45366 0.020281 
0.03575 0.1123 0.019109 -0.79562 -0.51323 -0.32186 0.012619 
0.015982 0.12307 0.031279 -0.28734 -0.71369 -0.63881 0.015042 
0.0079813 0.12438 0.032798 -0.17641 -0.74562 -0.6426 0.013594 
0.018101 0.11674 0.035493 -0.341 -0.61031 -0.71501 0.012042 
0.0086687 0.11758 0.037538 -0.14288 -0.59512 -0.79083 0.0068201 
0.01808 0.12536 0.026132 -0.31483 -0.75502 -0.57517 0.018927 
0.0080861 0.12866 0.02619 -0.13897 -0.81877 -0.55705 0.020221 
0.02275 0.12146 0.029671 -0.46939 -0.63913 -0.60925 0.017808 
-0.0018689 0.12456 0.033184 0.013603 -0.74252 -0.66968 0.018294 
-0.011168 0.12376 0.032519 0.17621 -0.73293 -0.65709 0.012435 
-0.0020063 0.11937 0.038104 0.015581 -0.61337 -0.78964 0.0098654 
-0.01232 0.11816 0.037427 0.16544 -0.60943 -0.77539 0.010151 
-0.0016659 0.12879 0.026782 0.015959 -0.81859 -0.57415 0.012096 
-0.011971 0.12723 0.026219 0.15334 -0.82868 -0.53831 0.0082006 
0.016484 0.12828 0.01928 -0.37532 -0.78364 -0.49502 0.020292 
0.0070921 0.13103 0.018415 -0.15337 -0.84397 -0.514 0.016852 
0.0014615 0.13134 0.017095 -0.042834 -0.9104 -0.4115 0.017653 
-0.013821 0.12886 0.019265 0.16456 -0.86137 -0.48058 0.0049584 
-0.01725 0.11202 0.040077 0.18226 -0.54695 -0.81709 0.010294 
-0.074556 0.13415 0.051046 0.012798 -0.3023 -0.95313 0.051309 
-0.065971 0.14396 0.04109 -0.39261 -0.49721 -0.77372 0.038743 
-0.071925 0.14545 0.043266 0.02674 -0.64898 -0.76034 0.050843 
-0.06551 0.13624 0.042195 -0.53003 -0.35881 -0.76833 0.022279 
-0.071112 0.13767 0.047518 -0.27323 -0.41975 -0.86554 0.048571 
-0.079528 0.13416 0.051194 0.25197 -0.35786 -0.89913 0.056114 
-0.080421 0.14428 0.042793 0.25382 -0.65816 -0.7088 0.035223 
-0.082672 0.1378 0.046806 0.30732 -0.48532 -0.81855 0.046785 
-0.08813 0.13514 0.042222 0.75877 -0.34958 -0.5496 0.039156 
-0.066325 0.12347 0.050729 -0.44115 0.090144 -0.89289 0.06132 
-0.072399 0.12662 0.052364 -0.19924 -0.056538 -0.97832 0.078432 
-0.066091 0.11973 0.050881 0.46001 -0.14488 0.87601 0.05758 
-0.072012 0.11811 0.052295 0.15415 -0.39873 0.90402 0.059502 
-0.062433 0.12627 0.043831 0.67807 0.072313 0.73143 0.02495 
-0.068326 0.12998 0.048875 -0.4115 -0.24808 -0.877 0.041893 
-0.063094 0.11811 0.044399 0.55261 -0.098901 0.82755 0.059798 
-0.071301 0.11322 0.04841 0.23895 -0.36028 0.90172 0.047693 
-0.080515 0.12741 0.052034 0.3439 -0.04675 -0.93784 0.043197 
-0.078179 0.1191 0.051116 0.1423 0.20575 -0.9682 0.061806 
-0.085216 0.12609 0.049001 0.43124 -0.029177 -0.90176 0.047063 
-0.089538 0.12621 0.044589 0.78543 -0.061353 -0.6159 0.050011 
-0.082659 0.11661 0.04797 0.33004 0.4196 -0.84558 0.059179 
-0.089536 0.11784 0.04457 0.75242 0.29992 -0.58644 0.063696 
-0.0565 0.15248 0.030132 -0.68793 -0.49827 -0.52771 0.042979 
-0.055517 0.15313 0.026915 -0.69099 -0.54537 -0.47445 0.04189 
-0.03625 0.17198 0.00017688 -0.41653 -0.2424 -0.87621 0.022427 
-0.03775 0.17198 0.00022189 -0.41655 -0.24235 -0.87621 0.022429 
-0.03625 0.16935 0.00051958 -0.40893 -0.25338 -0.87668 0.026099 
-0.033176 0.15711 0.0018682 -0.38284 -0.19409 -0.9032 0.019234 
-0.051913 0.1545 0.011273 -0.66867 -0.38039 -0.6389 0.064916 
-0.041707 0.16642 0.0030522 -0.37164 -0.19559 -0.90754 0.023031 
-0.049468 0.16414 0.0041988 -0.37486 -0.23067 -0.89793 0.025221 
-0.041892 0.15669 0.0054879 -0.37686 -0.21956 -0.89987 0.025246 
-0.051224 0.15878 0.0080283 -0.53207 -0.26674 -0.80359 0.064049 
-0.062417 0.15317 0.033161 -0.34451 -0.58608 -0.73336 0.068585 
-0.07167 0.15319 0.033701 -0.0060954 -0.74638 -0.66549 0.054666 
-0.062543 0.15524 0.027405 -0.42916 -0.78158 -0.45272 0.05567 
-0.07211 0.1555 0.027645 0.051386 -0.91491 -0.40038 0.040133 
-0.078663 0.15269 0.032268 0.29587 -0.81271 -0.50196 0.031378 
-0.081569 0.15374 0.026085 0.44976 -0.77767 -0.43927 0.073009 
-0.08725 0.1523 0.022135 0.63961 -0.64006 -0.4257 0.072818 
-0.05725 0.15568 0.010325 0.10209 -0.89293 -0.43846 0.12828 
-0.057888 0.1575 0.0073225 0.18222 -0.86645 -0.46481 0.11984 
-0.0885 0.15223 0.019215 0.59607 -0.68018 -0.42667 0.080294 
-0.056129 0.14616 0.03085 -0.70266 -0.4033 -0.58618 0.03935 
-0.054705 0.13555 0.032127 -0.76648 -0.23696 -0.59696 0.010657 
-0.054144 0.14714 0.026275 -0.75211 -0.47694 -0.45482 0.039228 
-0.046625 0.13234 0.021909 -0.65262 -0.53001 -0.54146 0.036676 
-0.05139 0.13694 0.025787 -0.81999 -0.33097 -0.46699 0.015529 
-0.018278 0.12238 0.030773 0.2412 -0.74026 -0.62757 0.008781 
-0.021656 0.11643 0.035209 0.20684 -0.68831 -0.69531 0.012516 
-0.031921 0.11566 0.032851 0.052051 -0.69322 -0.71885 0.013008 
-0.021348 0.12421 0.024562 0.16391 -0.77536 -0.60988 0.010676 
-0.03241 0.12349 0.023293 -0.014326 -0.72105 -0.69273 0.024435 
-0.024869 0.12094 0.028745 0.13608 -0.74558 -0.65237 0.015706 
-0.031747 0.12039 0.028229 -0.01712 -0.73446 -0.67843 0.023965 
-0.052912 0.12686 0.034968 -0.65453 -0.22027 -0.72324 0.030351 
-0.041672 0.11564 0.032998 -0.080571 -0.57924 -0.81117 0.023919 
-0.052037 0.1168 0.034582 -0.41701 -0.34607 -0.84044 0.051406 
-0.042495 0.12488 0.024082 -0.30726 -0.65335 -0.6919 0.04851 
-0.047946 0.12736 0.028108 -0.49055 -0.55319 -0.67331 0.051746 
-0.042421 0.12035 0.028633 -0.33128 -0.59007 -0.73625 0.049134 
-0.047661 0.12024 0.028871 -0.43833 -0.51565 -0.73619 0.048274 
-0.035964 0.1513 0.0005395 -0.42029 -0.24039 -0.87497 0.020134 
-0.050598 0.1474 0.013881 -0.77713 -0.39089 -0.49323 0.038714 
-0.046375 0.13293 0.018289 -0.64728 -0.52878 -0.54902 0.03468 
-0.049125 0.13856 0.016269 -0.79847 -0.41427 -0.43683 0.026629 
-0.042976 0.14915 0.0054003 -0.37569 -0.35777 -0.8549 0.020709 
-0.047965 0.14659 0.0086783 -0.60664 -0.40834 -0.68209 0.044052 
-0.022926 0.1263 0.018077 0.058139 -0.79008 -0.61024 0.019288 
-0.031583 0.1259 0.017804 -0.035046 -0.71238 -0.70092 0.025405 
-0.041733 0.12796 0.01665 -0.34056 -0.64991 -0.67944 0.039432 
-0.061482 0.14698 0.036168 -0.47815 -0.47563 -0.73834 0.044246 
-0.071729 0.15026 0.038328 -0.048814 -0.71668 -0.69569 0.046944 
-0.060526 0.1368 0.035999 -0.63952 -0.31579 -0.70092 0.013287 
-0.082619 0.14823 0.035955 0.49778 -0.67543 -0.54407 0.039146 
-0.087824 0.14449 0.033779 0.74658 -0.50298 -0.43547 0.042225 
-0.089 0.13828 0.037774 0.79145 -0.41278 -0.45081 0.029832 
-0.085662 0.15095 0.028208 0.55575 -0.72353 -0.40944 0.053478 
-0.089601 0.14725 0.025869 0.74482 -0.5394 -0.39281 0.045038 
-0.090681 0.13748 0.02369 0.92929 -0.2792 -0.2418 0.021765 
-0.058722 0.12924 0.038992 -0.72196 -0.19126 -0.66498 0.007882 
-0.060075 0.11512 0.037685 0.58527 -0.049394 0.80933 0.060667 
-0.091812 0.12767 0.038703 0.88238 -0.13416 -0.45101 0.041258 
-0.091727 0.11657 0.039619 0.78177 0.47602 -0.4028 0.046313 
-0.093164 0.12721 0.025211 0.99798 0.034939 -0.053129 0.022404 
-0.093938 0.12067 0.024399 0.98653 0.13998 -0.08462 0.024512 
-0.091583 0.14522 0.01986 0.79333 -0.46361 -0.39459 0.053614 
-0.090929 0.13667 0.019817 0.90854 -0.34862 -0.23025 0.041963 
-0.093094 0.11635 0.018959 0.97563 0.17597 -0.1311 0.030644 
0.024948 0.10286 0.041418 -0.40956 -0.43291 -0.80302 0.0082753 
0.0336 0.092627 0.040463 -0.71537 -0.21133 -0.66602 0.010883 
0.02742 0.096386 0.043312 -0.51451 -0.30299 -0.80217 0.0099813 
0.03392 0.086911 0.041034 -0.70615 -0.13241 -0.69557 0.010627 
0.028156 0.086837 0.045084 -0.57099 -0.12652 -0.81115 0.0098795 
0.03381 0.078604 0.040854 -0.68755 0.011263 -0.72605 0.006885 
0.028125 0.076874 0.045059 -0.62532 0.035015 -0.77958 0.0056717 
0.0145 0.093279 0.05088 -0.29641 -0.36911 -0.88085 0.012676 
0.0074817 0.09473 0.052315 -0.15533 -0.42459 -0.89196 0.015155 
0.017407 0.10535 0.043139 -0.26947 -0.49489 -0.82612 0.010228 
0.0079536 0.10633 0.042968 -0.11872 -0.52344 -0.84375 0.0058954 
0.018511 0.097194 0.047253 -0.3263 -0.40487 -0.85417 0.012241 
0.0086436 0.099323 0.048079 -0.20817 -0.48698 -0.84824 0.0058345 
-0.0020197 0.095698 0.053906 -0.056421 -0.438 -0.8972 0.013566 
-0.011446 0.095169 0.053862 0.1283 -0.44297 -0.88731 0.016555 
-0.001875 0.10691 0.043455 -0.0053283 -0.5335 -0.84578 0.008507 
-0.011875 0.10688 0.043019 0.11238 -0.53778 -0.83556 0.0091254 
-0.0017622 0.10071 0.046648 -0.036822 -0.54181 -0.83969 0.0059335 
-0.012498 0.10008 0.045916 0.17876 -0.51786 -0.83658 0.0076991 
0.016381 0.085894 0.051642 -0.38673 -0.1537 -0.90929 0.0091356 
0.0081167 0.08691 0.055228 -0.23434 -0.19834 -0.95171 0.013599 
0.017644 0.076955 0.052372 -0.45228 0.00079594 -0.89188 0.0068466 
0.008125 0.076853 0.055536 -0.22269 0.00093641 -0.97489 0.008075 
0.020575 0.088169 0.049006 -0.44437 -0.19028 -0.8754 0.0074979 
0.022445 0.075721 0.049563 -0.50092 0.053482 -0.86384 0.0035934 
-0.0017931 0.086849 0.056843 -0.063944 -0.23823 -0.9691 0.018582 
-0.011943 0.086771 0.057009 0.17322 -0.21206 -0.96178 0.031687 
-0.0019567 0.076863 0.057803 -0.049027 0.011373 -0.99873 0.01079 
-0.011875 0.076964 0.057022 0.21998 0.035884 -0.97485 0.02129 
0.03325 0.067541 0.040033 -0.64268 0.081787 -0.76176 0.0092372 
0.028149 0.066829 0.042953 -0.61148 0.1947 -0.76693 0.0043919 
0.026761 0.057829 0.042588 -0.5538 0.25738 -0.79187 0.0026778 
0.023571 0.04746 0.040428 -0.53798 0.36444 -0.76011 0.0084452 
0.015832 0.067418 0.051639 -0.42193 0.13773 -0.8961 0.0058891 
0.0080431 0.066902 0.055006 -0.20738 0.12997 -0.96959 0.0074576 
0.013984 0.058886 0.050416 -0.40321 0.25202 -0.87972 0.0065553 
0.0080973 0.056888 0.05295 -0.28803 0.3023 -0.90866 0.012127 
0.020566 0.065958 0.0483 -0.51767 0.20093 -0.83165 0.0032067 
0.018594 0.056539 0.047879 -0.51064 0.25849 -0.82002 0.003183 
0.012875 0.052652 0.049689 -0.34949 0.33313 -0.87572 0.0084002 
-0.0017852 0.066712 0.056503 -0.022679 0.17077 -0.98505 0.010108 
-0.011785 0.066885 0.055015 0.36199 0.1834 -0.91396 0.025608 
-0.001875 0.056597 0.05441 -0.00023647 0.25785 -0.96619 0.010288 
-0.01184 0.057054 0.052714 0.25595 0.12412 -0.95869 0.048768 
-0.015688 0.052469 0.049615 0.23139 -0.0034857 -0.97286 0.067586 
0.0066154 0.04993 0.051259 -0.17434 0.32581 -0.92922 0.0083587 
0.018088 0.046655 0.043321 -0.44075 0.3895 -0.80872 0.013868 
0.008841 0.045437 0.046623 -0.26993 0.44281 -0.85502 0.013776 
0.017688 0.039719 0.043084 -0.44868 0.44667 -0.77406 0.015517 
0.008125 0.039516 0.045374 -0.26993 0.44281 -0.85502 0.013774 
-0.0016111 0.049844 0.05172 -0.052765 0.26849 -0.96184 0.012317 
-0.01245 0.046773 0.050903 0.041815 0.085437 -0.99547 0.041144 
-0.013851 0.039778 0.051036 -7.0032e-05 0.069778 -0.99756 0.041156 
-0.0020294 0.044874 0.047587 -0.088748 0.27957 -0.95601 0.021951 
-0.011653 0.04686 0.048661 0.10975 -0.15871 -0.98121 0.062432 
-0.0018611 0.039606 0.047339 -0.12882 0.28658 -0.94935 0.022748 
-0.0091545 0.03958 0.049415 -0.065923 0.057962 -0.99614 0.034537 
0.043661 0.094028 0.02252 -0.90437 -0.25448 -0.34258 0.0072345 
0.034642 0.10473 0.031831 -0.75031 -0.39057 -0.53338 0.01183 
0.028343 0.1072 0.036339 -0.55067 -0.48486 -0.67947 0.014697 
0.036339 0.096552 0.034843 -0.79191 -0.28218 -0.54153 0.0086583 
0.031733 0.099372 0.038505 -0.62623 -0.3495 -0.69691 0.010159 
0.036998 0.10668 0.026781 -0.78386 -0.4238 -0.45383 0.0093929 
0.032875 0.11108 0.02959 -0.68288 -0.52299 -0.51006 0.015312 
0.040938 0.097132 0.026663 -0.86857 -0.30153 -0.39327 0.007539 
0.044153 0.086466 0.024241 -0.87531 -0.27562 -0.39731 0.021135 
0.05375 0.072221 0.020429 -0.67945 -0.3244 -0.65811 0.041216 
0.04516 0.076574 0.023594 -0.76431 -0.25595 -0.59188 0.047846 
0.038036 0.086663 0.035459 -0.82251 -0.091094 -0.5614 0.0082847 
0.037861 0.076625 0.035658 -0.78238 -2.8394e-05 -0.62281 0.0073809 
0.042216 0.087237 0.028254 -0.89411 -0.16382 -0.4168 0.0076605 
0.042355 0.076747 0.02858 -0.77382 -0.14537 -0.6165 0.032179 
0.043875 0.096228 0.015269 -0.91565 -0.26088 -0.30582 0.0054686 
0.044375 0.096797 0.0086445 -0.91098 -0.29849 -0.28463 0.010216 
0.039545 0.1061 0.017655 -0.8711 -0.40638 -0.27577 0.012606 
0.042313 0.10009 0.017237 -0.89665 -0.30183 -0.32391 0.0080464 
0.045406 0.087417 0.015604 -0.90038 -0.28161 -0.33167 0.017003 
0.055118 0.072639 0.017944 -0.67945 -0.3244 -0.65811 0.041216 
0.048722 0.07376 0.017434 -0.7105 -0.3251 -0.62411 0.041884 
0.045917 0.086298 0.0094211 -0.85099 -0.35504 -0.38698 0.027812 
0.019433 0.1096 0.039063 -0.34612 -0.50962 -0.78771 0.0054385 
0.01097 0.11058 0.039648 -0.19091 -0.51029 -0.83855 0.0041786 
0.046657 0.057153 0.031337 -0.58242 0.053806 -0.8111 0.041608 
0.056079 0.066335 0.024122 -0.57871 -0.18767 -0.79365 0.035119 
0.048168 0.06701 0.026298 -0.61815 -0.21575 -0.75587 0.033398 
0.056055 0.057253 0.024902 -0.57662 -0.11369 -0.80906 0.048577 
0.051163 0.056662 0.029137 -0.57616 0.01298 -0.81724 0.043615 
0.036914 0.067032 0.036122 -0.69094 -0.038727 -0.72188 0.028693 
0.033 0.06472 0.039903 -0.62217 0.15573 -0.76724 0.013047 
0.038004 0.056507 0.033119 -0.52362 0.25028 -0.81436 0.027734 
0.030629 0.054915 0.038484 -0.5151 0.29415 -0.80508 0.012226 
0.041875 0.066383 0.028357 -0.63425 -0.16989 -0.75423 0.040361 
0.041434 0.06088 0.029632 -0.59196 -0.031721 -0.80534 0.042493 
0.044921 0.049904 0.031243 -0.44909 0.28851 -0.84562 0.032767 
0.054635 0.050167 0.022044 -0.55465 0.090706 -0.82712 0.041544 
0.04828 0.04737 0.025845 -0.45548 0.26354 -0.85034 0.031821 
0.037973 0.048347 0.031456 -0.49562 0.35236 -0.79385 0.02845 
0.028053 0.047061 0.035991 -0.56701 0.33303 -0.75339 0.016104 
0.025595 0.040346 0.03415 -0.50702 0.42614 -0.74922 0.011862 
0.038455 0.043509 0.028278 -0.48641 0.43288 -0.75896 0.016773 
0.032031 0.043278 0.029253 -0.52799 0.39511 -0.75174 0.017854 
0.036581 0.040335 0.025144 -0.48641 0.43288 -0.75896 0.016772 
0.03019 0.039321 0.026847 -0.52799 0.39511 -0.75174 0.017854 
0.059333 0.067891 0.017361 -0.6761 -0.28245 -0.68053 0.055497 
0.0465 0.071452 0.01971 -0.69499 -0.34946 -0.62838 0.041043 
0.059562 0.057747 0.01834 -0.59598 -0.14039 -0.79063 0.047591 
0.055636 0.049199 0.019173 -0.55466 0.090705 -0.82712 0.041541 
0.0505 0.045064 0.019181 -0.47576 0.23059 -0.84881 0.037931 
0.023 0.047803 0.039776 -0.53798 0.36444 -0.76011 0.0084458 
0.022389 0.03886 0.038795 -0.53019 0.39988 -0.74766 0.0080691 
-0.019545 0.0939 0.052205 0.30393 -0.37133 -0.87735 0.025857 
-0.021462 0.10618 0.042059 0.18293 -0.54041 -0.82127 0.0081928 
-0.031027 0.10395 0.041228 0.20413 -0.44452 -0.8722 0.014915 
-0.022521 0.097723 0.045194 0.24231 -0.47227 -0.8475 0.014269 
-0.031858 0.097026 0.043878 0.20203 -0.34516 -0.91654 0.034422 
-0.043262 0.10412 0.040891 -0.022228 -0.38731 -0.92168 0.011719 
-0.052154 0.10404 0.040972 -0.071067 -0.30166 -0.95076 0.026547 
-0.041875 0.096944 0.042424 0.048084 -0.23958 -0.96968 0.024354 
-0.051919 0.096967 0.043563 0.043611 -0.19162 -0.9805 0.0088363 
-0.021489 0.086672 0.054767 0.40856 -0.096791 -0.90758 0.033556 
-0.027 0.083087 0.050284 0.47936 0.073618 -0.87452 0.029372 
-0.02107 0.077249 0.054365 0.49258 0.12393 -0.8614 0.026749 
-0.026011 0.089634 0.048981 0.41296 -0.24011 -0.87853 0.027709 
-0.031893 0.087035 0.044169 0.31445 -0.0016129 -0.94927 0.051816 
-0.025625 0.074892 0.047102 0.51255 0.23041 -0.82717 0.027311 
-0.03197 0.0769 0.042177 0.31272 0.24137 -0.91867 0.036128 
-0.041824 0.086954 0.043295 0.10403 0.00021099 -0.99457 0.021126 
-0.051825 0.086844 0.044933 0.038659 0.0574 -0.9976 0.011353 
-0.041918 0.076728 0.042564 0.13171 0.19002 -0.97291 0.020886 
-0.051849 0.076877 0.042992 0.14054 0.28936 -0.94685 0.018963 
-0.061339 0.10393 0.041164 0.018704 -0.022749 -0.99957 0.090892 
-0.072672 0.10976 0.044294 -0.030347 -0.50087 0.86499 0.069998 
-0.061784 0.096825 0.043327 0.02591 -0.044949 -0.99865 0.03364 
-0.070058 0.096203 0.041397 0.32974 0.098034 -0.93897 0.065345 
-0.080439 0.11091 0.044343 0.35499 0.53275 -0.76822 0.052787 
-0.061927 0.086724 0.04452 0.20307 0.12712 -0.97088 0.021759 
-0.070344 0.087352 0.041908 0.43917 0.10318 -0.89246 0.02591 
-0.06141 0.077489 0.042178 0.2817 0.38516 -0.8788 0.018223 
-0.068579 0.080144 0.041024 0.46149 0.30835 -0.83183 0.025685 
-0.019045 0.067732 0.052388 0.52821 0.21095 -0.82249 0.022405 
-0.017742 0.058909 0.050809 0.44456 0.046831 -0.89453 0.061075 
-0.023548 0.066382 0.045226 0.52046 0.21381 -0.82669 0.033006 
-0.03399 0.067795 0.040929 0.27034 0.2623 -0.92634 0.030628 
-0.02169 0.056549 0.045164 0.5264 -0.092637 -0.84518 0.053582 
-0.036111 0.060706 0.040407 0.16212 0.041305 -0.98591 0.034408 
-0.041231 0.066951 0.041392 0.13695 0.2209 -0.96563 0.020031 
-0.048588 0.070956 0.040357 0.19683 0.35414 -0.91424 0.036792 
-0.0403 0.059465 0.040446 0.1501 0.040982 -0.98782 0.032851 
-0.02192 0.044965 0.052258 0.22661 -0.38548 -0.89446 0.06483 
-0.029187 0.043585 0.051088 0.29815 -0.41823 -0.85801 0.042549 
-0.021919 0.039826 0.053521 0.16917 -0.23644 -0.95681 0.069407 
-0.030331 0.039749 0.052133 0.22881 -0.52221 -0.82155 0.02653 
-0.021998 0.049847 0.046725 0.32883 -0.32209 -0.88777 0.059343 
-0.031911 0.046848 0.045187 0.38441 -0.40567 -0.82926 0.029346 
-0.035276 0.039753 0.047529 0.23325 -0.50328 -0.83204 0.024267 
-0.042016 0.044823 0.041594 0.23023 -0.54783 -0.80429 0.037661 
-0.05194 0.044707 0.043498 0.30215 -0.47532 -0.82631 0.054735 
-0.041928 0.039327 0.043582 0.22297 -0.58165 -0.78229 0.027677 
-0.051857 0.039252 0.046212 0.29684 -0.53566 -0.79054 0.035197 
-0.059453 0.04424 0.042862 0.3483 -0.40328 -0.8462 0.059822 
-0.060765 0.039087 0.044363 0.28207 -0.53286 -0.79781 0.040162 
-0.024273 0.11038 0.039129 0.1542 -0.54047 -0.82711 0.0069473 
-0.032379 0.10878 0.037952 0.084698 -0.58362 -0.8076 0.010273 
-0.041152 0.10853 0.037969 -0.0083939 -0.53307 -0.84603 0.0092145 
-0.051698 0.10906 0.038258 -0.19474 -0.32519 -0.92538 0.052754 
-0.062091 0.10877 0.038274 -0.081399 0.25907 -0.96242 0.10378 
-0.071655 0.10596 0.037516 0.26321 0.44646 -0.85522 0.1182 
-0.074634 0.097746 0.038347 0.58313 0.089184 -0.80747 0.060251 
-0.07912 0.10508 0.032308 0.60719 0.50636 -0.6123 0.097756 
-0.080203 0.096758 0.033592 0.8148 0.032486 -0.57883 0.02528 
-0.08378 0.10568 0.025985 0.82195 0.19983 -0.53335 0.054802 
-0.087292 0.10314 0.020825 0.81704 0.1966 -0.54202 0.047478 
-0.08521 0.097079 0.02781 0.80384 -0.031348 -0.59402 0.013649 
-0.088082 0.096456 0.022985 0.85169 0.087536 -0.51669 0.015617 
-0.07516 0.08604 0.038816 0.6024 0.13698 -0.78636 0.017756 
-0.064577 0.073455 0.03897 0.35152 0.51879 -0.77929 0.015405 
-0.072279 0.076416 0.036413 0.5823 0.49216 -0.64708 0.023184 
-0.076375 0.072563 0.02873 0.64246 0.59442 -0.48364 0.01026 
-0.080031 0.087076 0.03429 0.75637 0.20555 -0.62101 0.014557 
-0.078919 0.079371 0.032477 0.74395 0.39062 -0.54218 0.012156 
-0.084834 0.086686 0.026974 0.83808 0.22543 -0.49679 0.018053 
-0.087891 0.089233 0.022611 0.8887 0.1616 -0.42907 0.022858 
-0.081048 0.077169 0.025829 0.79042 0.44959 -0.41605 0.014051 
-0.086393 0.10784 0.018635 0.82627 0.22507 -0.51635 0.047314 
-0.087672 0.10492 0.017264 0.81704 0.19659 -0.54203 0.047481 
-0.089333 0.098483 0.01761 0.84419 0.13444 -0.51892 0.019418 
-0.086375 0.083067 0.018607 0.89203 0.31347 -0.3256 0.022135 
-0.089179 0.089186 0.018947 0.92457 0.18718 -0.33185 0.026744 
-0.082879 0.076109 0.017794 0.80757 0.5075 -0.30046 0.016213 
-0.0825 0.074674 0.0071175 0.79326 0.54711 -0.26724 0.021363 
-0.026437 0.064141 0.039321 0.39986 0.053918 -0.91499 0.046977 
-0.030035 0.06613 0.038942 0.34111 0.17754 -0.9231 0.043096 
-0.026131 0.056531 0.038882 0.43689 -0.16311 -0.8846 0.059283 
-0.031664 0.056657 0.037742 0.3315 -0.18309 -0.92552 0.050644 
-0.045716 0.064541 0.039166 0.31618 0.27312 -0.90853 0.049255 
-0.051959 0.066869 0.036733 0.40605 0.45093 -0.79485 0.047432 
-0.042557 0.055545 0.039026 0.18495 -0.085147 -0.97905 0.059549 
-0.049406 0.056892 0.034344 0.47501 -0.075026 -0.87677 0.089824 
-0.0555 0.062391 0.029498 0.53006 0.66652 -0.5242 0.054482 
-0.05375 0.058574 0.026313 0.5645 0.69871 -0.43948 0.056629 
-0.03406 0.050137 0.038577 0.32604 -0.35488 -0.87622 0.03101 
-0.041741 0.04959 0.03929 0.22535 -0.36283 -0.9042 0.067322 
-0.050975 0.049435 0.036965 0.27043 -0.42349 -0.8646 0.067034 
-0.053 0.051065 0.029209 0.69353 -0.52103 -0.49754 0.1456 
-0.054145 0.054568 0.012257 -0.096126 -0.66108 0.74413 0.15134 
-0.055848 0.05417 0.0083272 0.089041 -0.62053 0.77911 0.14972 
-0.054844 0.049295 0.011462 0.53411 -0.67366 0.51079 0.1246 
-0.05615 0.050619 0.0092929 0.53413 -0.67366 0.51078 0.1246 
-0.061451 0.068257 0.035376 -0.38004 -0.69414 0.61134 0.014602 
-0.069725 0.069958 0.032788 0.47868 0.68067 -0.55457 0.0093146 
-0.062823 0.063322 0.026886 -0.50363 -0.74748 0.43317 0.020432 
-0.071037 0.066787 0.025228 0.51595 0.7164 -0.46964 0.0079884 
-0.060857 0.060568 0.022643 -0.47796 -0.74081 0.47196 0.040476 
-0.067 0.061558 0.020109 -0.43957 -0.75084 0.49296 0.026073 
-0.0782 0.071279 0.021032 0.69079 0.6408 -0.33494 0.014562 
-0.062116 0.045145 0.037802 0.32103 -0.5194 -0.79194 0.073813 
-0.065473 0.039513 0.037964 0.74541 -0.43104 -0.5085 0.1106 
-0.06725 0.03742 0.033413 0.86904 -0.38157 -0.31492 0.048626 
-0.072702 0.065008 0.018701 -0.55323 -0.77066 0.31626 0.013423 
-0.06145 0.059165 0.018731 -0.42379 -0.74996 0.5079 0.077032 
-0.0675 0.061479 0.019221 -0.43957 -0.75084 0.49296 0.026072 
-0.057411 0.054114 0.0038257 0.088981 -0.62052 0.77912 0.14972 
-0.079222 0.070654 0.017735 0.70546 0.64561 -0.29244 0.013829 
-0.062473 0.04468 0.01111 0.91477 -0.37052 0.16097 0.19507 
-0.06725 0.042258 0.010414 0.91477 -0.37051 0.16096 0.19507 
-0.066389 0.040515 0.01316 0.91309 -0.40745 0.01554 0.10936 
-0.068359 0.038502 0.011958 0.91309 -0.40745 0.015538 0.10936 
-0.061381 0.04748 0.007607 0.088986 -0.62052 0.77912 0.14972 
-0.068559 0.043549 0.0081576 0.91382 -0.29388 0.2803 0.17549 
-0.070929 0.03983 0.0085888 0.96377 -0.23598 0.12436 0.16528 
-0.016625 0.18375 -0.019735 -0.59121 -0.2972 -0.74976 0.018416 
-0.015198 0.17471 -0.018868 -0.61772 -0.31673 -0.71979 0.015108 
-0.015944 0.16264 -0.0091037 -0.56998 -0.29837 -0.76557 0.016584 
-0.015977 0.1607 -0.0088072 -0.50323 -0.31936 -0.80297 0.017845 
-0.013251 0.16708 -0.015264 -0.59131 -0.30979 -0.74457 0.018374 
-0.014292 0.16098 -0.011252 -0.5574 -0.3153 -0.76804 0.014968 
-0.013986 0.184 -0.023739 -0.5912 -0.29721 -0.74976 0.018415 
-0.011633 0.17699 -0.023349 -0.61772 -0.31672 -0.7198 0.015111 
-0.0091029 0.16988 -0.021457 -0.5913 -0.30979 -0.74457 0.018376 
-0.025562 0.18273 -0.0096247 -0.61361 -0.18184 -0.76839 0.011154 
-0.02725 0.18254 -0.0094384 -0.6136 -0.18189 -0.76839 0.011153 
-0.025736 0.17948 -0.0089653 -0.57145 -0.25413 -0.7803 0.015217 
-0.031216 0.17589 -0.0051154 -0.51918 -0.21259 -0.8278 0.017688 
-0.020399 0.1845 -0.014943 -0.59121 -0.29719 -0.74977 0.018418 
-0.021339 0.17645 -0.014566 -0.59121 -0.2972 -0.74977 0.018417 
-0.027125 0.17234 -0.010156 -0.53528 -0.28428 -0.7954 0.018111 
-0.03939 0.1733 -0.0023575 -0.41654 -0.24237 -0.87621 0.022428 
-0.022876 0.16406 -0.0078103 -0.52402 -0.3235 -0.78788 0.014922 
-0.031597 0.16651 -0.0049292 -0.47795 -0.20586 -0.85392 0.022681 
-0.0226 0.15912 -0.003799 -0.49332 -0.23737 -0.83684 0.020024 
-0.030372 0.15767 -0.0012672 -0.46534 -0.21498 -0.85863 0.02046 
-0.021158 0.16849 -0.012383 -0.58714 -0.30066 -0.75158 0.018799 
-0.027 0.1712 -0.01022 -0.53529 -0.28425 -0.79541 0.018111 
-0.041719 0.16813 -0.00074958 -0.4512 -0.20591 -0.86834 0.025321 
-0.04825 0.16748 -0.00015191 -0.35192 -0.2272 -0.90804 0.019419 
-0.03725 0.16147 -7.2628e-05 -0.37932 -0.18733 -0.9061 0.020353 
-0.066429 0.15783 -0.0085673 0.37451 -0.83764 -0.39763 0.0093106 
-0.071284 0.15839 -0.005998 0.3745 -0.83764 -0.39762 0.0093036 
-0.065979 0.16288 -0.017792 0.3951 -0.82476 -0.40455 0.0099251 
-0.071623 0.16384 -0.01576 0.39505 -0.8248 -0.40453 0.0099122 
-0.066068 0.16051 -0.013567 0.37779 -0.8401 -0.38925 0.0085788 
-0.073307 0.16049 -0.011832 0.39232 -0.82984 -0.39681 0.008961 
-0.077 0.16204 -0.019241 0.081739 -0.90418 -0.41925 0.0093999 
-0.077179 0.15851 -0.01495 0.37368 -0.83338 -0.40724 0.0092926 
-0.073691 0.17286 -0.037944 0.069695 -0.89716 -0.43617 0.0087425 
-0.07755 0.17221 -0.039175 0.071805 -0.89982 -0.43031 0.0089746 
-0.065921 0.16586 -0.025022 0.081798 -0.90417 -0.41926 0.0094124 
-0.072095 0.16784 -0.024725 0.081822 -0.90417 -0.41925 0.0093989 
-0.066 0.16808 -0.030916 0.091465 -0.89597 -0.43459 0.0084843 
-0.073448 0.17051 -0.032045 0.063165 -0.90468 -0.42139 0.0088847 
-0.07777 0.16434 -0.025938 0.081755 -0.90418 -0.41926 0.0094112 
-0.077893 0.16039 -0.021299 0.081758 -0.90418 -0.41926 0.0094111 
-0.078211 0.169 -0.034566 0.063133 -0.90468 -0.4214 0.0088821 
-0.034667 0.15131 -0.00071029 -0.40799 -0.19128 -0.89272 0.019776 
-0.066117 0.17353 -0.047453 0.069693 -0.89716 -0.43617 0.0087398 
-0.071986 0.17612 -0.045384 0.069767 -0.89716 -0.43615 0.008724 
-0.06925 0.182 -0.055026 0.069736 -0.89716 -0.43617 0.0087392 
-0.064992 0.17802 -0.054645 0.069733 -0.89716 -0.43617 0.0087392 
-0.069935 0.17983 -0.051988 0.069736 -0.89716 -0.43617 0.0087392 
-0.07793 0.17516 -0.0444 0.071805 -0.89982 -0.43031 0.0089746 
3 0 12 198
3 132 0 198
3 127 132 198
3 129 127 198
3 126 129 198
3 197 126 198
3 11 197 198
3 11 12 198
3 9 11 12
3 10 9 12
3 16 10 12
3 18 16 12
3 1 18 12
3 1 0 12
3 1 132 0
3 18 1 132
3 19 18 132
3 2 19 132
3 26 2 132
3 133 26 132
3 135 133 132
3 134 135 132
3 129 134 132
3 129 127 132
3 130 134 129
3 125 130 129
3 137 125 129
3 124 137 129
3 128 124 129
3 128 126 129
3 119 128 126
3 117 119 126
3 176 117 126
3 176 197 126
3 3 176 197
3 15 3 197
3 15 11 197
3 13 15 11
3 13 9 11
3 22 13 9
3 14 22 9
3 14 10 9
3 24 14 10
3 20 24 10
3 20 16 10
3 21 20 16
3 17 21 16
3 19 17 16
3 19 18 16
3 21 17 19
3 76 21 19
3 77 76 19
3 278 77 19
3 26 278 19
3 26 2 19
3 229 278 26
3 228 229 26
3 230 228 26
3 135 230 26
3 135 133 26
3 239 230 135
3 227 239 135
3 131 227 135
3 130 131 135
3 130 134 135
3 227 131 130
3 236 227 130
3 143 236 130
3 145 143 130
3 142 145 130
3 139 142 130
3 137 139 130
3 137 125 130
3 138 139 137
3 136 138 137
3 140 136 137
3 140 124 137
3 121 140 124
3 119 121 124
3 119 128 124
3 120 121 119
3 118 120 119
3 177 118 119
3 178 177 119
3 176 178 119
3 176 117 119
3 177 178 176
3 175 177 176
3 179 175 176
3 180 179 176
3 6 180 176
3 6 3 176
3 4 6 3
3 4 15 3
3 22 4 15
3 22 13 15
3 7 4 22
3 23 14 22
3 23 24 14
3 25 24 20
3 25 21 20
3 96 25 21
3 79 96 21
3 81 79 21
3 81 76 21
3 78 81 76
3 78 77 76
3 279 78 77
3 229 279 77
3 229 278 77
3 280 279 229
3 232 280 229
3 234 232 229
3 231 234 229
3 230 231 229
3 230 228 229
3 240 231 230
3 240 239 230
3 242 240 239
3 237 242 239
3 238 237 239
3 236 238 239
3 236 227 239
3 145 238 236
3 145 143 236
3 241 238 145
3 258 241 145
3 256 258 145
3 257 256 145
3 158 257 145
3 159 158 145
3 157 159 145
3 151 157 145
3 144 151 145
3 144 142 145
3 151 144 142
3 151 139 142
3 152 151 139
3 150 152 139
3 141 150 139
3 141 138 139
3 123 141 138
3 140 123 138
3 140 136 138
3 123 121 140
3 122 123 121
3 186 122 121
3 186 120 121
3 185 186 120
3 177 185 120
3 177 118 120
3 187 185 177
3 174 187 177
3 181 174 177
3 179 181 177
3 179 175 177
3 192 181 179
3 191 192 179
3 8 191 179
3 5 8 179
3 6 5 179
3 6 180 179
3 8 5 6
3 7 8 6
3 7 4 6
3 80 97 96
3 82 80 96
3 81 82 96
3 81 79 96
3 82 78 81
3 80 82 78
3 88 80 78
3 84 88 78
3 280 84 78
3 280 279 78
3 85 84 280
3 281 85 280
3 233 281 280
3 233 232 280
3 235 233 232
3 235 234 232
3 244 235 234
3 243 244 234
3 240 243 234
3 240 231 234
3 244 243 240
3 245 244 240
3 245 242 240
3 263 245 242
3 262 263 242
3 264 262 242
3 259 264 242
3 308 259 242
3 307 308 242
3 258 307 242
3 241 258 242
3 238 241 242
3 238 237 242
3 310 307 258
3 309 310 258
3 260 309 258
3 161 260 258
3 257 161 258
3 257 256 258
3 160 161 257
3 160 158 257
3 160 159 158
3 161 160 159
3 167 161 159
3 162 167 159
3 156 162 159
3 153 156 159
3 151 153 159
3 151 157 159
3 156 153 151
3 156 152 151
3 155 156 152
3 154 155 152
3 154 150 152
3 154 141 150
3 147 154 141
3 147 123 141
3 146 147 123
3 204 146 123
3 186 204 123
3 186 122 123
3 208 204 186
3 201 208 186
3 188 201 186
3 182 188 186
3 187 182 186
3 187 185 186
3 174 182 187
3 193 182 174
3 189 193 174
3 192 189 174
3 192 181 174
3 190 189 192
3 190 191 192
3 86 98 97
3 86 80 97
3 86 88 80
3 87 86 88
3 89 87 88
3 85 89 88
3 85 84 88
3 87 89 85
3 83 87 85
3 108 83 85
3 40 108 85
3 109 40 85
3 282 109 85
3 247 282 85
3 247 281 85
3 247 233 281
3 249 247 233
3 249 235 233
3 252 249 235
3 252 244 235
3 255 252 244
3 254 255 244
3 246 254 244
3 263 246 244
3 263 245 244
3 254 246 263
3 325 254 263
3 312 325 263
3 314 312 263
3 311 314 263
3 264 311 263
3 264 262 263
3 313 311 264
3 318 313 264
3 310 318 264
3 310 307 261
3 261 310 264
3 261 259 264
3 261 308 259
3 261 307 308
3 317 318 310
3 270 317 310
3 270 309 310
3 269 270 309
3 269 260 309
3 265 269 260
3 171 265 260
3 171 161 260
3 170 171 161
3 170 167 161
3 166 170 167
3 164 166 167
3 164 162 167
3 163 164 162
3 163 156 162
3 225 163 156
3 225 155 156
3 148 225 155
3 148 154 155
3 147 148 154
3 207 148 147
3 205 207 147
3 205 146 147
3 205 204 146
3 206 205 204
3 209 206 204
3 209 208 204
3 199 209 208
3 203 199 208
3 203 201 208
3 202 203 201
3 200 202 201
3 220 200 201
3 183 220 201
3 195 183 201
3 221 195 201
3 184 221 201
3 184 188 201
3 182 184 188
3 193 184 182
3 195 184 193
3 195 221 184
3 196 195 193
3 190 196 193
3 190 189 193
3 92 93 98
3 74 92 98
3 87 74 98
3 87 86 98
3 93 74 87
3 93 92 74
3 75 93 87
3 72 75 87
3 101 72 87
3 108 101 87
3 108 83 87
3 28 101 108
3 30 28 108
3 41 30 108
3 41 40 108
3 42 109 40
3 43 42 40
3 38 43 40
3 36 38 40
3 37 36 40
3 37 41 40
3 43 282 109
3 43 42 109
3 248 43 282
3 283 248 282
3 283 247 282
3 250 283 247
3 250 249 247
3 253 250 249
3 255 253 249
3 255 252 249
3 291 253 255
3 295 291 255
3 296 295 255
3 293 296 255
3 326 293 255
3 292 326 255
3 292 254 255
3 325 292 254
3 315 312 325
3 327 315 325
3 330 327 325
3 328 330 325
3 326 328 325
3 326 292 325
3 316 315 312
3 316 314 312
3 314 313 311
3 319 314 313
3 319 318 313
3 273 319 318
3 272 273 318
3 270 272 318
3 270 317 318
3 274 272 270
3 271 274 270
3 268 271 270
3 266 268 270
3 267 266 270
3 265 267 270
3 265 269 270
3 169 267 265
3 168 169 265
3 168 171 265
3 173 171 170
3 172 173 170
3 172 166 170
3 163 165 166
3 163 164 166
3 226 165 163
3 215 226 163
3 215 225 163
3 149 215 225
3 149 148 225
3 214 149 148
3 214 207 148
3 217 214 207
3 213 217 207
3 206 213 207
3 206 205 207
3 210 213 206
3 199 210 206
3 199 209 206
3 212 210 199
3 212 203 199
3 211 212 203
3 211 202 203
3 223 211 202
3 222 223 202
3 220 222 202
3 220 200 202
3 194 183 220
3 195 194 183
3 196 194 195
3 94 98 93
3 95 94 93
3 91 95 93
3 73 91 93
3 73 75 93
3 50 73 75
3 71 50 75
3 99 71 75
3 101 99 75
3 101 72 75
3 100 99 101
3 100 28 101
3 29 100 28
3 31 29 28
3 41 31 28
3 41 30 28
3 27 31 41
3 27 37 41
3 251 248 43
3 48 251 43
3 45 48 43
3 39 45 43
3 39 38 43
3 39 36 38
3 37 39 36
3 32 27 37
3 44 32 37
3 45 44 37
3 45 39 37
3 284 283 248
3 284 251 248
3 253 284 283
3 253 250 283
3 295 284 253
3 295 291 253
3 286 284 295
3 289 286 295
3 290 289 295
3 298 290 295
3 297 298 295
3 299 297 295
3 299 296 295
3 294 299 296
3 326 294 296
3 326 293 296
3 331 294 326
3 331 328 326
3 329 327 315
3 329 316 315
3 336 329 327
3 336 330 327
3 337 336 330
3 337 328 330
3 339 331 328
3 335 339 328
3 335 337 328
3 320 314 319
3 332 320 319
3 333 332 319
3 276 333 319
3 277 276 319
3 277 273 319
3 275 277 273
3 274 275 273
3 274 272 273
3 268 271 274
3 267 266 268
3 173 171 168
3 173 168 169
3 219 215 226
3 218 219 215
3 217 218 215
3 214 217 215
3 214 149 215
3 216 218 217
3 216 213 217
3 212 216 213
3 212 210 213
3 218 216 212
3 224 218 212
3 223 224 212
3 223 211 212
3 55 90 94
3 372 55 94
3 59 372 94
3 60 59 94
3 56 60 94
3 56 95 94
3 56 91 95
3 56 73 91
3 51 56 73
3 63 51 73
3 63 50 73
3 61 63 50
3 61 71 50
3 61 99 71
3 62 61 99
3 62 100 99
3 65 62 100
3 102 65 100
3 33 102 100
3 33 29 100
3 34 33 29
3 32 34 29
3 27 32 29
3 27 31 29
3 49 48 251
3 111 49 251
3 285 111 251
3 285 284 251
3 44 45 48
3 46 44 48
3 47 46 48
3 47 49 48
3 46 34 32
3 46 44 32
3 286 285 284
3 287 285 286
3 288 287 286
3 288 289 286
3 302 288 289
3 302 290 289
3 304 302 290
3 304 298 290
3 303 304 298
3 303 297 298
3 305 303 297
3 305 299 297
3 339 305 299
3 331 339 299
3 331 294 299
3 316 336 329
3 334 332 320
3 334 333 332
3 277 276 333
3 390 55 90
3 367 390 55
3 367 372 55
3 366 367 372
3 365 366 372
3 54 365 372
3 53 54 372
3 370 53 372
3 57 370 372
3 58 57 372
3 58 59 372
3 58 60 59
3 63 56 51
3 62 64 63
3 62 61 63
3 66 64 62
3 66 65 62
3 67 66 65
3 105 67 65
3 103 105 65
3 103 102 65
3 104 103 102
3 35 104 102
3 34 35 102
3 34 33 102
3 47 35 34
3 47 46 34
3 110 47 49
3 110 111 49
3 111 287 285
3 104 35 47
3 104 110 47
3 116 111 287
3 300 116 287
3 301 300 287
3 301 288 287
3 302 301 288
3 306 305 303
3 306 339 305
3 349 350 366
3 368 349 366
3 364 368 366
3 369 364 366
3 369 365 366
3 362 369 365
3 358 362 365
3 359 358 365
3 52 359 365
3 52 54 365
3 52 53 54
3 363 52 53
3 363 53 370
3 371 363 370
3 58 371 370
3 58 57 370
3 106 70 67
3 106 105 67
3 106 103 105
3 114 106 103
3 107 114 103
3 107 104 103
3 107 110 104
3 112 107 110
3 113 112 110
3 113 111 110
3 113 111 116
3 112 113 116
3 301 300 116
3 352 349 350
3 352 349 368
3 351 352 368
3 355 351 368
3 348 355 368
3 361 348 368
3 356 361 368
3 358 356 368
3 362 358 368
3 369 362 368
3 369 364 368
3 357 356 358
3 357 359 358
3 363 52 359
3 114 106 70
3 115 107 114
3 115 112 107
3 347 354 355
3 347 348 355
3 360 347 348
3 360 361 348
3 360 356 361
3 353 347 354
3 353 347 360
3 321 322 324
3 338 322 324
3 344 338 324
3 323 344 324
3 323 321 324
3 338 323 344
3 321 338 323
3 340 341 342
3 346 341 342
3 343 346 342
3 345 340 341
3 345 346 341
3 373 374 377
3 376 375 377
3 380 376 377
3 378 380 377
3 378 374 377
3 380 378 374
3 384 383 375
3 379 384 375
3 379 376 375
3 379 380 376
3 388 379 380
3 386 385 383
3 386 384 383
3 382 386 384
3 389 382 384
3 387 389 384
3 388 387 384
3 388 379 384
3 381 386 385
3 396 381 386
3 396 382 386
3 396 382 389
3 392 381 396
3 395 392 396
3 391 381 392
3 394 391 392
3 394 395 392
3 393 394 395
